<svg version="1.1" viewBox="0.0 0.0 805.2493438320209 117.5748031496063" fill="none" stroke="none" stroke-linecap="square" stroke-miterlimit="10" xmlns:xlink="http://www.w3.org/1999/xlink" xmlns="http://www.w3.org/2000/svg"><clipPath id="p.0"><path d="m0 0l805.2493 0l0 117.57481l-805.2493 0l0 -117.57481z" clip-rule="nonzero"/></clipPath><g clip-path="url(#p.0)"><path fill="#000000" fill-opacity="0.0" d="m0 0l805.2493 0l0 117.57481l-805.2493 0z" fill-rule="evenodd"/><path fill="#000000" fill-opacity="0.0" d="m-0.06824147 3.8582678l805.3858 0l0 109.85827l-805.3858 0z" fill-rule="evenodd"/><path fill="#000000" d="m182.20905 23.759897q1.0625 0.09375 2.453125 0.140625q1.390625 0.046875 3.3125 0.046875q11.21875 0 16.640625 -5.65625q5.4375 -5.671874 5.4375 -15.656249q0 -10.46875 -5.1875 -15.84375q-5.1875 -5.375001 -16.421875 -5.375001q-1.53125 0 -3.171875 0.046875q-1.625 0.046875 -3.0625 0.25l0 42.046875zm43.296875 -21.125q0 8.640625 -2.6875 15.078124q-2.6875 6.421875 -7.640625 10.65625q-4.9375 4.218752 -12.046875 6.328127q-7.09375 2.109375 -15.9375 2.109375q-4.03125 0 -9.40625 -0.34375q-5.375 -0.328125 -10.546875 -1.375l0 -64.796875q5.171875 -0.96875 10.78125 -1.296875q5.625 -0.34375 9.65625 -0.34375q8.546875 0 15.5 1.921875q6.96875 1.921875 11.953125 6.046875q5.0 4.125 7.6875 10.562501q2.6875 6.421875 2.6875 15.453125zm57.01758 33.3125q-1.046875 -3.453125 -2.34375 -7.093752q-1.296875 -3.65625 -2.546875 -7.3125l-25.92186 0q-1.25 3.65625 -2.546875 7.3125q-1.296875 3.640627 -2.34375 7.093752l-15.5625 0q3.75 -10.750002 7.109375 -19.859377q3.359375 -9.124999 6.578125 -17.1875q3.21875 -8.078125 6.328125 -15.312501q3.125 -7.25 6.4843597 -14.171875l14.3125 0q3.265625 6.921875 6.421875 14.171875q3.171875 7.234376 6.390625 15.312501q3.21875 8.0625 6.578125 17.1875q3.359375 9.109375 7.09375 19.859377l-16.03125 0zm-17.953125 -51.453125q-0.46875 1.4375 -1.4375 3.9375q-0.953125 2.484375 -2.203125 5.75q-1.25 3.265625 -2.734375 7.203125q-1.484375 3.9375 -3.0312347 8.265625l18.92186 0q-1.546875 -4.328125 -2.984375 -8.265625q-1.4375 -3.9375 -2.734375 -7.203125q-1.296875 -3.265625 -2.265625 -5.75q-0.953125 -2.5 -1.53125 -3.9375zm91.98163 -15.078126l0 12.765625l-20.078125 0l0 53.765625l-14.96875 0l0 -53.765625l-20.0625 0l0 -12.765625l55.109375 0zm54.13147 66.53125q-1.046875 -3.453125 -2.34375 -7.093752q-1.296875 -3.65625 -2.546875 -7.3125l-25.921875 0q-1.25 3.65625 -2.546875 7.3125q-1.296875 3.640627 -2.34375 7.093752l-15.5625 0q3.75 -10.750002 7.109375 -19.859377q3.359375 -9.124999 6.578125 -17.1875q3.21875 -8.078125 6.328125 -15.312501q3.125 -7.25 6.484375 -14.171875l14.3125 0q3.265625 6.921875 6.421875 14.171875q3.171875 7.234376 6.390625 15.312501q3.21875 8.0625 6.578125 17.1875q3.359375 9.109375 7.09375 19.859377l-16.03125 0zm-17.953125 -51.453125q-0.46875 1.4375 -1.4375 3.9375q-0.953125 2.484375 -2.203125 5.75q-1.25 3.265625 -2.734375 7.203125q-1.484375 3.9375 -3.03125 8.265625l18.921875 0q-1.546875 -4.328125 -2.984375 -8.265625q-1.4375 -3.9375 -2.734375 -7.203125q-1.296875 -3.265625 -2.265625 -5.75q-0.953125 -2.5 -1.53125 -3.9375zm65.677795 51.453125l0 -66.53125l44.53125 0l0 12.578125l-29.5625 0l0 13.921876l26.296875 0l0 12.578125l-26.296875 0l0 27.453125l-14.96875 0zm67.66644 -33.3125q0 4.890625 1.203125 8.828125q1.203125 3.9375 3.453125 6.781249q2.265625 2.828125 5.53125 4.359375q3.265625 1.53125 7.484375 1.53125q4.125 0 7.4375 -1.53125q3.3125 -1.53125 5.5625 -4.359375q2.265625 -2.843749 3.453125 -6.781249q1.203125 -3.9375 1.203125 -8.828125q0 -4.890625 -1.203125 -8.875q-1.1875 -3.984375 -3.453125 -6.8125q-2.25 -2.84375 -5.5625 -4.375001q-3.3125 -1.53125 -7.4375 -1.53125q-4.21875 0 -7.484375 1.578125q-3.265625 1.578126 -5.53125 4.421876q-2.25 2.828125 -3.453125 6.8125q-1.203125 3.984375 -1.203125 8.78125zm50.796875 0q0 8.546875 -2.546875 15.031249q-2.546875 6.46875 -6.96875 10.84375q-4.40625 4.359377 -10.515625 6.578127q-6.09375 2.203125 -13.09375 2.203125q-6.8125 0 -12.859375 -2.203125q-6.046875 -2.21875 -10.5625 -6.578127q-4.515625 -4.375 -7.109375 -10.84375q-2.5937195 -6.484374 -2.5937195 -15.031249q0 -8.546875 2.6874695 -15.015625q2.6875 -6.484376 7.25 -10.890626q4.5625 -4.421875 10.5625 -6.625q6.0 -2.218748 12.625 -2.218748q6.8125 0 12.859375 2.218748q6.046875 2.203125 10.5625 6.625q4.515625 4.40625 7.109375 10.890626q2.59375 6.46875 2.59375 15.015625zm31.964966 -33.984375q14.96875 0 22.9375 5.328125q7.96875 5.328125 7.96875 16.5625q0 7.0 -3.21875 11.375q-3.21875 4.375 -9.265625 6.859375q2.015625 2.5 4.21875 5.71875q2.21875 3.218749 4.375 6.718749q2.171875 3.5 4.1875 7.296875q2.015625 3.796877 3.734375 7.437502l-16.796875 0q-1.828125 -3.265625 -3.703125 -6.625002q-1.859375 -3.359375 -3.828125 -6.515625q-1.96875 -3.171875 -3.890625 -6.0q-1.921875 -2.843749 -3.84375 -5.140624l-7.390625 0l0 24.28125l-14.96875 0l0 -65.5625q4.890625 -0.96875 10.125 -1.34375q5.234375 -0.390625 9.359375 -0.390625zm0.859375 12.765625q-1.625 0 -2.921875 0.09375q-1.296875 0.09375 -2.453125 0.203125l0 18.046875l4.21875 0q8.453125 0 12.09375 -2.109375q3.65625 -2.125 3.65625 -7.203125q0 -4.90625 -3.703125 -6.968751q-3.6875 -2.0625 -10.890625 -2.0625z" fill-rule="nonzero"/><path fill="#000000" d="m297.83774 95.93177q-10.46875 0 -15.125 5.8125q-4.640625 5.8125 -4.640625 15.890625q0 4.890625 1.140625 8.875q1.15625 3.9843674 3.453125 6.8749924q2.3125 2.875 5.765625 4.46875q3.453125 1.578125 8.0625 1.578125q2.5 0 4.265625 -0.09375q1.78125 -0.109375 3.125 -0.390625l0 -23.140617l14.984375 0l0 32.937492q-2.6875 1.046875 -8.640625 2.25q-5.953125 1.203125 -14.6875 1.203125q-7.484375 0 -13.59375 -2.296875q-6.09375 -2.3125 -10.421875 -6.71875q-4.3125 -4.421875 -6.671875 -10.859375q-2.34375 -6.4374924 -2.34375 -14.687492q0 -8.34375 2.59375 -14.78125q2.59375 -6.4375 7.109375 -10.890625q4.515625 -4.46875 10.609375 -6.765625q6.09375 -2.3125 13.0 -2.3125q4.703125 0 8.5 0.625q3.796875 0.625 6.53125 1.4375q2.734375 0.8125 4.5 1.6875q1.78125 0.859375 2.546875 1.34375l-4.3125 12.0q-3.078125 -1.640625 -7.0625 -2.84375q-3.984375 -1.203125 -8.6875 -1.203125zm47.516968 21.703125q0 4.890625 1.203125 8.828125q1.203125 3.9374924 3.453125 6.7812424q2.265625 2.828125 5.53125 4.359375q3.265625 1.53125 7.484375 1.53125q4.125 0 7.4375 -1.53125q3.3125 -1.53125 5.5625 -4.359375q2.265625 -2.84375 3.453125 -6.7812424q1.203125 -3.9375 1.203125 -8.828125q0 -4.890625 -1.203125 -8.875q-1.1875 -3.984375 -3.453125 -6.8125q-2.25 -2.84375 -5.5625 -4.375q-3.3125 -1.53125 -7.4375 -1.53125q-4.21875 0 -7.484375 1.578125q-3.265625 1.578125 -5.53125 4.421875q-2.25 2.828125 -3.453125 6.8125q-1.203125 3.984375 -1.203125 8.78125zm50.796875 0q0 8.546875 -2.546875 15.031242q-2.546875 6.46875 -6.96875 10.84375q-4.40625 4.359375 -10.515625 6.578125q-6.09375 2.203125 -13.09375 2.203125q-6.8125 0 -12.859375 -2.203125q-6.046875 -2.21875 -10.5625 -6.578125q-4.515625 -4.375 -7.109375 -10.84375q-2.59375 -6.4843674 -2.59375 -15.031242q0 -8.546875 2.6875 -15.015625q2.6875 -6.484375 7.25 -10.890625q4.5625 -4.421875 10.5625 -6.625q6.0 -2.21875 12.625 -2.21875q6.8125 0 12.859375 2.21875q6.046875 2.203125 10.5625 6.625q4.515625 4.40625 7.109375 10.890625q2.59375 6.46875 2.59375 15.015625zm25.04309 0q0 4.890625 1.203125 8.828125q1.203125 3.9374924 3.453125 6.7812424q2.265625 2.828125 5.53125 4.359375q3.265625 1.53125 7.484375 1.53125q4.125 0 7.4375 -1.53125q3.3125 -1.53125 5.5625 -4.359375q2.265625 -2.84375 3.453125 -6.7812424q1.203125 -3.9375 1.203125 -8.828125q0 -4.890625 -1.203125 -8.875q-1.1875 -3.984375 -3.453125 -6.8125q-2.25 -2.84375 -5.5625 -4.375q-3.3125 -1.53125 -7.4375 -1.53125q-4.21875 0 -7.484375 1.578125q-3.265625 1.578125 -5.53125 4.421875q-2.25 2.828125 -3.453125 6.8125q-1.203125 3.984375 -1.203125 8.78125zm50.796875 0q0 8.546875 -2.546875 15.031242q-2.546875 6.46875 -6.96875 10.84375q-4.40625 4.359375 -10.515625 6.578125q-6.09375 2.203125 -13.09375 2.203125q-6.8125 0 -12.859375 -2.203125q-6.046875 -2.21875 -10.5625 -6.578125q-4.515625 -4.375 -7.109375 -10.84375q-2.59375 -6.4843674 -2.59375 -15.031242q0 -8.546875 2.6875 -15.015625q2.6875 -6.484375 7.25 -10.890625q4.5625 -4.421875 10.5625 -6.625q6.0 -2.21875 12.625 -2.21875q6.8125 0 12.859375 2.21875q6.046875 2.203125 10.5625 6.625q4.515625 4.40625 7.109375 10.890625q2.59375 6.46875 2.59375 15.015625zm27.44934 21.124992q1.0625 0.09375 2.453125 0.140625q1.390625 0.046875 3.3125 0.046875q11.2187805 0 16.640656 -5.65625q5.4375 -5.6718674 5.4375 -15.656242q0 -10.46875 -5.1875 -15.84375q-5.1875 -5.375 -16.421906 -5.375q-1.53125 0 -3.171875 0.046875q-1.625 0.046875 -3.0625 0.25l0 42.046867zm43.296906 -21.124992q0 8.640625 -2.6875 15.078117q-2.6875 6.421875 -7.640625 10.65625q-4.9375 4.21875 -12.046875 6.328125q-7.09375 2.109375 -15.9375305 2.109375q-4.03125 0 -9.40625 -0.34375q-5.375 -0.328125 -10.546875 -1.375l0 -64.79687q5.171875 -0.96875 10.78125 -1.296875q5.625 -0.34375 9.65625 -0.34375q8.5469055 0 15.5000305 1.921875q6.96875 1.921875 11.953125 6.046875q5.0 4.125 7.6875 10.5625q2.6875 6.421875 2.6875 15.453125z" fill-rule="nonzero"/></g></svg>