<svg version="1.1" viewBox="0.0 0.0 407.7165354330709 100.0" fill="none" stroke="none" stroke-linecap="square" stroke-miterlimit="10" xmlns:xlink="http://www.w3.org/1999/xlink" xmlns="http://www.w3.org/2000/svg"><clipPath id="p.0"><path d="m0 0l407.71652 0l0 100.0l-407.71652 0l0 -100.0z" clip-rule="nonzero"/></clipPath><g clip-path="url(#p.0)"><path fill="#000000" fill-opacity="0.0" d="m0 0l407.71652 0l0 100.0l-407.71652 0z" fill-rule="evenodd"/><path fill="#000000" fill-opacity="0.0" d="m-1.5748031 26.440945l410.86615 0l0 47.118107l-410.86615 0z" fill-rule="evenodd"/><path fill="#ffffff" d="m93.650154 31.986248q0.53125 0.046875 1.21875 0.078125q0.703125 0.015625 1.65625 0.015625q5.625 0 8.328125 -2.828125q2.71875 -2.828125 2.71875 -7.828125q0 -5.234375 -2.59375 -7.921875q-2.59375 -2.6875 -8.203125 -2.6875q-0.765625 0 -1.59375 0.03125q-0.8125 0.015625 -1.53125 0.109375l0 21.03125zm21.640625 -10.5625q0 4.3125 -1.34375 7.53125q-1.34375 3.21875 -3.8125 5.328125q-2.46875 2.109375 -6.03125 3.171875q-3.546875 1.0625 -7.953125 1.0625q-2.015625 0 -4.703125 -0.171875q-2.6875 -0.171875 -5.28125 -0.703125l0 -32.390625q2.59375 -0.484375 5.390625 -0.640625q2.8125 -0.171875 4.828125 -0.171875q4.28125 0 7.75 0.953125q3.484375 0.953125 5.96875 3.03125q2.5 2.0625 3.84375 5.28125q1.34375 3.203125 1.34375 7.71875zm28.5167 16.65625q-0.53125 -1.734375 -1.1875 -3.546875q-0.640625 -1.828125 -1.265625 -3.65625l-12.953125 0q-0.6250076 1.828125 -1.2812576 3.65625q-0.640625 1.8125 -1.171875 3.546875l-7.765625 0q1.875 -5.375 3.546875 -9.9375q1.6875 -4.5625 3.28125 -8.59375q1.609375 -4.03125 3.1718826 -7.65625q1.5625 -3.625 3.25 -7.078125l7.140625 0q1.640625 3.453125 3.21875 7.078125q1.59375 3.625 3.1875 7.65625q1.609375 4.03125 3.28125 8.59375q1.6875 4.5625 3.5625 9.9375l-8.015625 0zm-8.96875 -25.734375q-0.25 0.71875 -0.734375 1.96875q-0.46875 1.25 -1.09375 2.890625q-0.625 1.625 -1.375 3.59375q-0.734375 1.96875 -1.5 4.125l9.453125 0q-0.765625 -2.15625 -1.484375 -4.125q-0.71875 -1.96875 -1.375 -3.59375q-0.640625 -1.640625 -1.125 -2.890625q-0.484375 -1.25 -0.765625 -1.96875zm45.983063 -7.53125l0 6.390625l-10.03125 0l0 26.875l-7.5 0l0 -26.875l-10.03125 0l0 -6.390625l27.5625 0zm27.065811 33.265625q-0.53125 -1.734375 -1.1875 -3.546875q-0.640625 -1.828125 -1.265625 -3.65625l-12.953125 0q-0.625 1.828125 -1.28125 3.65625q-0.640625 1.8125 -1.171875 3.546875l-7.765625 0q1.875 -5.375 3.546875 -9.9375q1.6875 -4.5625 3.28125 -8.59375q1.609375 -4.03125 3.171875 -7.65625q1.5625 -3.625 3.25 -7.078125l7.140625 0q1.640625 3.453125 3.21875 7.078125q1.59375 3.625 3.1875 7.65625q1.609375 4.03125 3.28125 8.59375q1.6875 4.5625 3.5625 9.9375l-8.015625 0zm-8.96875 -25.734375q-0.25 0.71875 -0.734375 1.96875q-0.46875 1.25 -1.09375 2.890625q-0.625 1.625 -1.375 3.59375q-0.734375 1.96875 -1.5 4.125l9.453125 0q-0.765625 -2.15625 -1.484375 -4.125q-0.71875 -1.96875 -1.375 -3.59375q-0.640625 -1.640625 -1.125 -2.890625q-0.484375 -1.25 -0.765625 -1.96875zm32.831207 25.734375l0 -33.265625l22.265625 0l0 6.296875l-14.78125 0l0 6.953125l13.15625 0l0 6.28125l-13.15625 0l0 13.734375l-7.484375 0zm33.833313 -16.65625q0 2.453125 0.59375 4.421875q0.609375 1.96875 1.734375 3.390625q1.125 1.40625 2.75 2.171875q1.640625 0.765625 3.75 0.765625q2.078125 0 3.734375 -0.765625q1.65625 -0.765625 2.78125 -2.171875q1.125 -1.421875 1.71875 -3.390625q0.609375 -1.96875 0.609375 -4.421875q0 -2.453125 -0.609375 -4.4375q-0.59375 -2.0 -1.71875 -3.40625q-1.125 -1.421875 -2.78125 -2.1875q-1.65625 -0.765625 -3.734375 -0.765625q-2.109375 0 -3.75 0.796875q-1.625 0.78125 -2.75 2.203125q-1.125 1.40625 -1.734375 3.40625q-0.59375 1.984375 -0.59375 4.390625zm25.390625 0q0 4.265625 -1.28125 7.515625q-1.265625 3.234375 -3.46875 5.421875q-2.203125 2.1875 -5.25 3.296875q-3.046875 1.09375 -6.5625 1.09375q-3.40625 0 -6.4375 -1.09375q-3.015625 -1.109375 -5.28125 -3.296875q-2.25 -2.1875 -3.546875 -5.421875q-1.28125 -3.25 -1.28125 -7.515625q0 -4.265625 1.34375 -7.5q1.34375 -3.25 3.609375 -5.453125q2.28125 -2.21875 5.28125 -3.3125q3.0 -1.109375 6.3125 -1.109375q3.421875 0 6.4375 1.109375q3.03125 1.09375 5.28125 3.3125q2.25 2.203125 3.546875 5.453125q1.296875 3.234375 1.296875 7.5zm15.982574 -16.984375q7.5 0 11.484375 2.671875q3.984375 2.65625 3.984375 8.265625q0 3.5 -1.609375 5.6875q-1.609375 2.1875 -4.640625 3.4375q1.015625 1.234375 2.109375 2.84375q1.109375 1.609375 2.1875 3.375q1.078125 1.75 2.078125 3.640625q1.015625 1.890625 1.890625 3.71875l-8.40625 0q-0.90625 -1.625 -1.84375 -3.296875q-0.9375 -1.6875 -1.921875 -3.265625q-0.984375 -1.59375 -1.953125 -3.0q-0.953125 -1.421875 -1.90625 -2.578125l-3.703125 0l0 12.140625l-7.484375 0l0 -32.78125q2.4375 -0.484375 5.046875 -0.671875q2.625 -0.1875 4.6875 -0.1875zm0.4375 6.375q-0.8125 0 -1.46875 0.046875q-0.640625 0.046875 -1.21875 0.09375l0 9.03125l2.109375 0q4.21875 0 6.046875 -1.046875q1.828125 -1.0625 1.828125 -3.609375q0 -2.453125 -1.859375 -3.484375q-1.84375 -1.03125 -5.4375 -1.03125z" fill-rule="nonzero"/><path fill="#ffffff" d="m151.46463 68.58q-5.234375 0 -7.5625 2.90625q-2.328125 2.890625 -2.328125 7.9375q0 2.453125 0.578125 4.453125q0.578125 1.984375 1.71875 3.421875q1.15625 1.4375 2.890625 2.234375q1.734375 0.78125 4.03125 0.78125q1.25 0 2.140625 -0.046875q0.890625 -0.046875 1.5625 -0.1875l0 -11.5625l7.484375 0l0 16.453125q-1.34375 0.53125 -4.328125 1.125q-2.96875 0.609375 -7.34375 0.609375q-3.734375 0 -6.78125 -1.15625q-3.046875 -1.15625 -5.21875 -3.359375q-2.15625 -2.203125 -3.328125 -5.421875q-1.171875 -3.21875 -1.171875 -7.34375q0 -4.171875 1.28125 -7.390625q1.296875 -3.21875 3.546875 -5.453125q2.265625 -2.234375 5.3125 -3.3750038q3.046875 -1.15625 6.515625 -1.15625q2.34375 0 4.234375 0.3125q1.90625 0.3125 3.265625 0.71875q1.375 0.40625 2.265625 0.84375q0.890625 0.4218788 1.265625 0.6718788l-2.15625 6.0q-1.53125 -0.8125 -3.53125 -1.40625q-1.984375 -0.609375 -4.34375 -0.609375zm23.758575 10.84375q0 2.453125 0.59375 4.421875q0.609375 1.96875 1.734375 3.390625q1.125 1.40625 2.75 2.171875q1.640625 0.765625 3.75 0.765625q2.078125 0 3.734375 -0.765625q1.65625 -0.765625 2.78125 -2.171875q1.125 -1.421875 1.71875 -3.390625q0.609375 -1.96875 0.609375 -4.421875q0 -2.453125 -0.609375 -4.4375q-0.59375 -2.0 -1.71875 -3.40625q-1.125 -1.421875 -2.78125 -2.1875q-1.65625 -0.765625 -3.734375 -0.765625q-2.109375 0 -3.75 0.796875q-1.625 0.78125 -2.75 2.203125q-1.125 1.40625 -1.734375 3.40625q-0.59375 1.984375 -0.59375 4.390625zm25.390625 0q0 4.265625 -1.28125 7.515625q-1.265625 3.234375 -3.46875 5.421875q-2.203125 2.1875 -5.25 3.296875q-3.046875 1.09375 -6.5625 1.09375q-3.40625 0 -6.4375 -1.09375q-3.015625 -1.109375 -5.28125 -3.296875q-2.25 -2.1875 -3.546875 -5.421875q-1.28125 -3.25 -1.28125 -7.515625q0 -4.265625 1.34375 -7.5q1.34375 -3.25 3.609375 -5.453125q2.28125 -2.21875 5.28125 -3.3125038q3.0 -1.109375 6.3125 -1.109375q3.421875 0 6.4375 1.109375q3.03125 1.0937538 5.28125 3.3125038q2.25 2.203125 3.546875 5.453125q1.296875 3.234375 1.296875 7.5zm12.529449 0q0 2.453125 0.59375 4.421875q0.609375 1.96875 1.734375 3.390625q1.125 1.40625 2.75 2.171875q1.640625 0.765625 3.75 0.765625q2.078125 0 3.734375 -0.765625q1.65625 -0.765625 2.78125 -2.171875q1.125 -1.421875 1.71875 -3.390625q0.609375 -1.96875 0.609375 -4.421875q0 -2.453125 -0.609375 -4.4375q-0.59375 -2.0 -1.71875 -3.40625q-1.125 -1.421875 -2.78125 -2.1875q-1.65625 -0.765625 -3.734375 -0.765625q-2.109375 0 -3.75 0.796875q-1.625 0.78125 -2.75 2.203125q-1.125 1.40625 -1.734375 3.40625q-0.59375 1.984375 -0.59375 4.390625zm25.390625 0q0 4.265625 -1.28125 7.515625q-1.265625 3.234375 -3.46875 5.421875q-2.203125 2.1875 -5.25 3.296875q-3.046875 1.09375 -6.5625 1.09375q-3.40625 0 -6.4375 -1.09375q-3.015625 -1.109375 -5.28125 -3.296875q-2.25 -2.1875 -3.546875 -5.421875q-1.28125 -3.25 -1.28125 -7.515625q0 -4.265625 1.34375 -7.5q1.34375 -3.25 3.609375 -5.453125q2.28125 -2.21875 5.28125 -3.3125038q3.0 -1.109375 6.3125 -1.109375q3.421875 0 6.4375 1.109375q3.03125 1.0937538 5.28125 3.3125038q2.25 2.203125 3.546875 5.453125q1.296875 3.234375 1.296875 7.5zm13.732574 10.5625q0.53125 0.046875 1.21875 0.078125q0.703125 0.015625 1.65625 0.015625q5.625 0 8.328125 -2.828125q2.71875 -2.828125 2.71875 -7.828125q0 -5.234375 -2.59375 -7.921875q-2.59375 -2.6875 -8.203125 -2.6875q-0.765625 0 -1.59375 0.03125q-0.8125 0.015625 -1.53125 0.109375l0 21.03125zm21.640625 -10.5625q0 4.3125 -1.34375 7.53125q-1.34375 3.21875 -3.8125 5.328125q-2.46875 2.109375 -6.03125 3.171875q-3.546875 1.0625 -7.953125 1.0625q-2.015625 0 -4.703125 -0.171875q-2.6875 -0.171875 -5.28125 -0.703125l0 -32.39063q2.59375 -0.484375 5.390625 -0.640625q2.8125 -0.171875 4.828125 -0.171875q4.28125 0 7.75 0.953125q3.484375 0.9531288 5.96875 3.0312538q2.5 2.0625 3.84375 5.28125q1.34375 3.203125 1.34375 7.71875z" fill-rule="nonzero"/></g></svg>